<?xml version="1.0" standalone="no"?>
<!DOCTYPE svg PUBLIC "-//W3C//DTD SVG 20010904//EN"
 "http://www.w3.org/TR/2001/REC-SVG-20010904/DTD/svg10.dtd">
<svg version="1.0" xmlns="http://www.w3.org/2000/svg"
 width="300.000000pt" height="148.000000pt" viewBox="0 0 300.000000 148.000000"
 preserveAspectRatio="xMidYMid meet">
<metadata>
Created by potrace 1.10, written by Peter Selinger 2001-2011
</metadata>
<g transform="translate(0.000000,148.000000) scale(0.100000,-0.100000)"
fill="#000000" stroke="none">
<path d="M1410 1167 c-31 -19 -49 -22 -155 -23 -99 0 -128 -4 -165 -21 -101
-46 -168 -164 -156 -271 8 -69 40 -134 84 -173 144 -127 354 -85 438 87 25 51
26 62 21 137 l-7 82 34 23 c33 22 86 114 86 148 0 15 -4 14 -27 -8 -16 -14
-37 -30 -48 -36 -27 -13 -105 -26 -105 -17 0 4 9 23 21 41 28 46 21 58 -21 31z
m-156 -56 c3 -5 -17 -8 -44 -8 -28 0 -50 4 -50 9 0 11 87 10 94 -1z m141 -11
c7 -22 104 -38 115 -19 5 6 10 7 13 2 4 -6 -9 -22 -28 -38 -19 -15 -35 -34
-35 -42 0 -8 -4 -12 -8 -9 -5 3 -8 -14 -7 -37 0 -23 -2 -67 -6 -97 l-6 -55 -2
66 c-1 68 -21 135 -35 122 -5 -5 -5 3 -1 16 4 14 3 21 -2 18 -5 -3 -15 3 -23
13 -8 10 -17 17 -21 14 -4 -2 -5 6 -3 18 2 13 2 18 -2 11 -4 -9 -12 -9 -32 -1
-46 20 -46 27 -3 26 23 0 44 2 46 4 11 11 35 3 40 -12z m-91 -54 c63 -37 90
-80 94 -153 8 -113 -60 -199 -165 -211 -52 -6 -126 14 -149 39 -9 10 -21 16
-26 13 -4 -3 -7 -2 -6 3 1 4 -8 28 -21 52 -48 91 -9 215 81 260 60 30 138 29
192 -3z"/>
<path d="M1144 971 c-60 -36 -68 -124 -17 -175 73 -74 193 -19 193 89 0 33 -2
35 -20 25 -12 -6 -29 -8 -40 -5 -23 7 -36 43 -21 58 19 19 12 27 -26 27 -21 0
-52 -9 -69 -19z m52 -36 c9 -8 12 -15 8 -15 -3 0 0 -8 7 -17 12 -14 12 -16 0
-8 -10 5 -12 4 -7 -3 4 -7 16 -12 26 -12 10 0 22 -5 25 -10 4 -6 11 -8 16 -5
5 4 6 -2 2 -12 -20 -57 -77 -70 -118 -28 -30 30 -32 64 -4 99 24 30 26 31 45
11z"/>
<path d="M2630 629 c2 -99 3 -96 -20 -102 -17 -4 -20 -14 -20 -60 0 -50 2 -56
22 -59 22 -3 23 -5 19 -119 -3 -111 -2 -117 22 -144 21 -25 33 -29 89 -33 51
-3 76 0 112 16 46 21 46 21 46 70 0 58 -4 64 -38 51 -33 -13 -69 -4 -76 19 -2
9 -6 44 -8 77 l-3 60 35 -2 c74 -5 80 0 80 72 l0 65 -60 0 -60 0 6 68 7 69
-44 6 c-24 3 -59 9 -77 13 l-33 7 1 -74z m111 -36 c6 -47 36 -95 57 -92 35 6
52 -3 52 -26 0 -18 -5 -25 -20 -25 -11 0 -22 1 -24 3 -11 6 -56 -49 -56 -69 0
-13 -4 -26 -10 -29 -13 -8 -1 -63 21 -101 18 -31 63 -59 79 -49 4 3 14 -3 21
-13 7 -9 10 -14 5 -10 -4 3 -16 -2 -27 -13 -13 -13 -33 -19 -66 -19 -73 0 -95
9 -87 32 4 15 3 18 -7 13 -8 -6 -11 -4 -7 6 3 8 2 49 -1 91 -4 42 -3 74 1 72
3 -2 9 0 13 6 3 5 1 10 -4 10 -6 0 -11 7 -11 15 0 8 -5 15 -11 15 -5 0 -8 4
-5 9 3 5 -1 11 -9 15 -19 7 -19 56 0 82 8 10 20 45 26 77 11 54 13 57 38 54
23 -3 27 -9 32 -54z"/>
<path d="M1485 546 c-59 -27 -77 -46 -104 -106 -40 -87 -19 -203 47 -273 52
-55 112 -72 194 -57 74 14 81 24 67 92 l-11 56 -58 -5 c-49 -5 -60 -3 -78 15
-40 40 -41 103 -1 143 17 17 31 20 76 17 l55 -3 14 45 c19 64 19 66 -26 84
-56 22 -116 20 -175 -8z m119 -18 c-4 -6 -3 -8 4 -5 18 12 37 -2 38 -28 2 -23
-14 -32 -48 -26 -4 0 -25 -6 -46 -14 -75 -30 -97 -123 -47 -195 24 -35 33 -40
82 -46 43 -5 56 -11 63 -28 10 -28 -6 -37 -75 -37 -40 -1 -62 4 -76 17 -10 9
-19 14 -19 11 0 -3 -11 4 -25 17 -14 13 -25 31 -25 40 0 9 -5 16 -11 16 -6 0
-9 9 -6 20 3 11 1 18 -4 14 -5 -3 -9 1 -10 8 -4 52 -3 91 4 95 4 2 5 8 2 13
-3 5 6 27 20 48 27 41 89 78 140 85 17 2 34 5 38 6 5 0 5 -4 1 -11z"/>
<path d="M691 544 c-36 -8 -66 -15 -67 -17 -2 -2 1 -30 6 -63 6 -32 10 -123
10 -200 0 -159 -2 -154 75 -154 77 0 75 -4 75 150 0 98 4 141 13 148 23 19 61
23 82 8 18 -13 20 -28 23 -155 4 -161 1 -155 98 -149 l49 3 3 172 c3 201 -5
234 -62 258 -20 8 -49 15 -66 15 -31 0 -103 -31 -115 -50 -12 -19 -34 -10 -37
17 -4 33 -8 34 -87 17z m294 -44 c14 -5 25 -20 29 -40 9 -45 8 -300 -1 -302
-5 0 -20 -2 -35 -3 -27 -2 -28 -1 -29 56 -2 69 -6 175 -8 188 -2 15 -48 59
-69 65 -33 11 -71 -4 -89 -35 -9 -15 -20 -26 -24 -24 -4 3 -8 -50 -8 -117 -1
-67 -4 -125 -7 -130 -10 -16 -53 -8 -64 11 -6 12 -9 77 -8 158 1 76 -1 143 -5
150 -5 8 6 16 33 24 37 11 41 10 59 -9 23 -27 50 -28 95 -1 19 11 47 22 62 25
16 3 31 7 34 10 2 3 6 0 8 -6 2 -6 14 -15 27 -20z"/>
<path d="M1840 538 c-144 -77 -148 -306 -7 -404 51 -36 122 -35 165 1 38 32
52 32 52 0 0 -24 3 -25 58 -25 31 0 62 4 68 8 8 5 11 69 10 210 l-1 202 -35
10 c-59 16 -90 13 -90 -10 0 -26 -8 -25 -37 2 -36 34 -125 37 -183 6z m185
-45 c13 -8 28 -7 52 4 19 7 43 11 54 8 18 -6 19 -15 17 -178 l-3 -172 -32 1
c-22 1 -31 -2 -26 -10 3 -6 -3 -2 -14 9 -11 11 -19 23 -17 26 2 4 -11 7 -29 7
-53 0 -57 1 -57 17 0 8 6 12 14 9 7 -3 31 12 52 32 22 21 46 37 54 36 13 -3
13 -2 0 8 -13 9 -13 11 0 20 10 6 11 10 3 10 -7 0 -13 10 -13 23 0 18 2 19 10
7 15 -23 12 -6 -4 26 -8 15 -13 31 -11 34 2 4 -7 12 -20 18 -14 7 -25 16 -25
21 0 13 -64 25 -93 17 -35 -8 -93 -70 -100 -105 -4 -17 -3 -41 2 -54 11 -28
80 -99 90 -92 9 5 61 -39 61 -51 0 -3 -9 -4 -20 -1 -12 3 -18 1 -14 -5 5 -7
-11 -9 -47 -6 -29 3 -55 11 -57 17 -2 6 -11 11 -20 11 -8 0 -13 3 -9 6 3 4 -3
14 -14 23 -12 9 -22 28 -22 43 -1 14 -5 24 -9 21 -14 -8 -8 94 7 130 8 19 12
36 10 39 -10 10 58 64 93 74 37 11 93 1 137 -23z m-12 -77 c75 -57 10 -200
-75 -167 -39 15 -70 68 -63 106 10 61 91 96 138 61z"/>
<path d="M1139 540 c0 -3 0 -97 1 -210 1 -143 5 -207 13 -212 21 -13 127 -9
132 5 2 6 5 104 7 217 l3 205 -77 0 c-43 0 -78 -2 -79 -5z m113 -48 c5 -5 7
-80 6 -167 -3 -138 -5 -159 -20 -169 -13 -8 -23 -8 -35 0 -16 10 -18 29 -19
145 -1 74 -2 145 -4 159 -1 14 -2 30 -1 36 1 13 60 9 73 -4z"/>
<path d="M2360 540 c-14 -4 -39 -8 -56 -9 l-30 -1 4 -207 c2 -115 6 -210 8
-212 7 -8 103 -13 127 -7 24 6 24 6 20 123 -3 71 0 124 6 133 7 10 27 15 63
15 l53 0 3 83 3 82 -28 0 c-15 0 -47 -11 -70 -24 l-42 -24 -6 29 c-7 30 -13
32 -55 19z m39 -54 c16 -20 55 -25 69 -9 14 14 51 18 53 6 5 -45 3 -63 -6 -64
-5 -1 -23 -3 -38 -5 -16 -1 -41 -16 -55 -31 -24 -26 -27 -36 -30 -130 -4 -89
-7 -103 -23 -108 -10 -4 -27 0 -36 7 -16 11 -18 32 -19 173 0 103 3 163 10
167 18 13 63 9 75 -6z"/>
<path d="M120 521 c-5 -11 -10 -83 -10 -163 0 -120 3 -149 18 -178 40 -73 137
-88 217 -34 40 27 57 30 54 12 -6 -47 -2 -49 74 -46 l72 3 0 210 0 210 -77 3
-78 3 0 -134 c0 -115 -2 -136 -17 -150 -10 -8 -25 -16 -33 -17 -67 -10 -85 33
-77 188 l5 112 -68 0 c-58 0 -71 -3 -80 -19z m96 -19 c8 -4 12 -47 12 -120 l0
-114 32 -33 c29 -30 39 -34 72 -31 36 4 91 43 94 67 1 5 2 10 4 12 1 1 3 48 4
104 1 58 6 107 12 113 6 6 23 8 38 4 l26 -6 -2 -171 -3 -171 -32 -7 c-18 -3
-31 -4 -30 0 1 3 -10 18 -24 33 -18 19 -32 25 -47 21 -12 -3 -22 -9 -22 -14 0
-5 -7 -5 -17 -2 -10 4 -14 2 -9 -5 4 -7 -8 -15 -31 -21 -48 -14 -86 -14 -78
-1 3 5 0 7 -8 4 -8 -3 -20 2 -27 11 -7 8 -9 15 -5 15 5 0 0 9 -9 19 -15 16
-18 40 -17 147 0 111 2 130 17 141 20 15 34 16 50 5z"/>
</g>
</svg>
